# xmcd
#
# Track frame offsets:
#	150
#	15427
#	38752
#	51738
#	69878
#	84116
#	99303
#	119741
#	135159
#	154469
#
# Disc length: 2440 seconds
#
# Revision: 2
# Processed by: cddbd v1.5.2PL0 Copyright (c) Steve Scherf et al.
# Submitted via: audiograbber 1.83.01
#
DISCID=7809860a
DTITLE=Cullum, Jamie - Jamie Cullum and Friends - Devil May Care!
DYEAR=2010
DGENRE=Jazz
TTITLE0=Devil May Care 
TTITLE1=I Can't Get Started 
TTITLE2=God Only Knows 
TTITLE3=Love Won't Let Me Wait 
TTITLE4=Lookin' Good 
TTITLE5=Well You Needn't 
TTITLE6=It Ain't Necessarily So 
TTITLE7=Too Close For Comfort 
TTITLE8=Small Day Tomorrow 
TTITLE9=In The Wee Small Hours Of The Morning
EXTD=friends: Geoff Gascoyne (bass) and Sebastian De Krom (drums]\nguest track: B
EXTD=ob Dorough (piano and vocal @ #9)
EXTT0=
EXTT1=
EXTT2=
EXTT3=
EXTT4=
EXTT5=
EXTT6=
EXTT7=
EXTT8=
EXTT9=
PLAYORDER=
